<svg width="45" height="52" viewBox="0 0 45 52" fill="none" xmlns="http://www.w3.org/2000/svg">
<path d="M42.2849 38.9761C39.9203 38.783 38.3125 37.2674 37.5051 34.4747C36.8735 32.2858 36.9901 30.1125 36.9918 30.0899C36.9918 30.0777 36.9918 30.0673 36.9918 30.0551V21.677C37.8253 21.4508 38.4413 20.6904 38.4413 19.7856C38.4413 18.7869 37.6896 17.9604 36.7221 17.8403L36.6334 17.2383C36.6317 17.2226 36.6282 17.207 36.6247 17.193C35.9096 14.108 34.1487 11.3101 31.6692 9.31431C29.1497 7.28721 25.9794 6.17188 22.7395 6.17188C15.2523 6.17188 9.00394 12.0183 8.51674 19.4829C8.49412 19.8396 8.48889 20.2189 8.49933 20.7078C8.53065 21.9902 8.2279 26.2132 3.06358 26.6813C2.7469 26.7091 2.512 26.991 2.54158 27.3077C2.56942 27.6069 2.81998 27.8331 3.11578 27.8331C3.13318 27.8331 3.15058 27.8331 3.16798 27.8314C9.4894 27.2607 9.68079 21.7762 9.6547 20.6817C9.64425 20.2259 9.64774 19.8796 9.66862 19.5594C10.1175 12.7004 15.8578 7.32723 22.7395 7.32723C28.8626 7.32723 34.1052 11.4824 35.4954 17.4332L35.5859 18.0439C34.9543 18.3693 34.5193 19.0287 34.5193 19.7874C34.5193 20.6435 35.0726 21.3725 35.8382 21.6387V30.0395C35.826 30.2778 35.7321 32.4755 36.3881 34.7653C37.3242 38.0365 39.3321 39.8896 42.191 40.1245C42.2066 40.1245 42.2223 40.1262 42.2379 40.1262C42.5355 40.1262 42.7878 39.8983 42.8121 39.5955C42.8382 39.2771 42.6016 38.9987 42.2849 38.9726V38.9761ZM36.4803 18.98C36.9257 18.98 37.2876 19.3419 37.2876 19.7874C37.2876 20.2328 36.9257 20.5947 36.4803 20.5947C36.0348 20.5947 35.6729 20.2328 35.6729 19.7874C35.6729 19.3419 36.0348 18.98 36.4803 18.98Z" fill="white"/>
<path d="M31.9898 38.1111C31.8071 37.3646 31.7131 36.5642 31.7131 35.7325V21.1774C31.7131 18.6735 30.6708 16.248 28.856 14.5236C27.0586 12.8167 24.7183 11.9467 22.2684 12.0737C17.5025 12.3225 13.7702 16.2567 13.7702 21.0451C13.7702 21.0712 13.8015 23.6343 12.507 26.2251C10.7948 29.646 7.66805 31.5147 3.21017 31.7775C2.89175 31.7966 2.64989 32.0698 2.66903 32.3865C2.68817 32.7049 2.96309 32.9467 3.27803 32.9276C9.40457 32.5657 12.2512 29.3397 13.5597 26.6984C14.9447 23.9005 14.9273 21.2174 14.9239 21.0277C14.9273 16.8674 18.1776 13.4413 22.3293 13.2256C24.4608 13.1142 26.4966 13.8729 28.0643 15.3588C29.6512 16.8657 30.563 18.9867 30.563 21.1756V35.7307C30.563 36.6547 30.6674 37.5473 30.8727 38.3842C31.1493 39.5135 31.5409 40.3104 32.0333 40.7524C32.1429 40.8516 32.2803 40.9003 32.4178 40.9003C32.5762 40.9003 32.7345 40.8359 32.8476 40.7089C33.0599 40.4722 33.0407 40.1068 32.8024 39.8946C32.4944 39.6179 32.2055 38.9845 31.9915 38.1111H31.9898Z" fill="white"/>
<path d="M15.9917 31.9632C15.7342 31.7753 15.374 31.8327 15.1861 32.0902C10.9126 37.9749 3.24621 37.7174 3.14355 37.7121C2.82513 37.6965 2.55543 37.9436 2.53977 38.262C2.52411 38.5804 2.77119 38.8501 3.08961 38.8658C3.10701 38.8658 3.20967 38.871 3.38541 38.871C4.05009 38.871 5.75877 38.8083 7.83633 38.2533C11.3268 37.3206 14.1891 35.424 16.1187 32.7688C16.3066 32.5113 16.2492 32.1494 15.9917 31.9632Z" fill="white"/>
<path d="M24.983 18.712C24.4279 18.0404 23.685 17.6715 22.7732 17.6123C22.7193 17.6088 21.4473 17.5462 20.4625 18.5102C19.683 19.2723 19.3176 20.4276 19.375 21.9467C19.3767 21.9936 19.5455 26.6986 16.7806 29.7419C16.5666 29.9768 16.584 30.3422 16.8189 30.5562C17.0538 30.7702 17.4192 30.7528 17.6332 30.5179C20.7252 27.1179 20.5373 22.1067 20.5269 21.8997C20.4816 20.7304 20.7287 19.8726 21.2577 19.3454C21.8701 18.7364 22.6966 18.7642 22.7001 18.7642C23.2865 18.8025 23.7406 19.0252 24.0904 19.4463C25.1901 20.7739 24.8699 23.5057 24.8664 23.5318C24.8664 23.544 24.8647 23.5544 24.8629 23.5666C24.5289 28.7013 21.9624 32.846 19.8674 35.4212C17.5863 38.2261 15.3504 39.8304 15.3138 39.8565C15.0546 40.0409 14.9919 40.4011 15.1764 40.6604C15.2895 40.8187 15.4669 40.904 15.6479 40.904C15.7627 40.904 15.8793 40.8692 15.9802 40.7978C16.0759 40.73 18.3519 39.1031 20.7391 36.1781C22.9472 33.4707 25.6529 29.1033 26.0131 23.6588C26.0461 23.37 26.3576 20.3789 24.9813 18.7137L24.983 18.712Z" fill="white"/>
<path d="M27.9624 27.8484C27.6423 27.8345 27.3761 28.0851 27.3639 28.4035C27.129 34.7023 25.1054 37.9213 24.4007 38.8557C24.1623 38.7513 23.8978 38.6938 23.6211 38.6938C22.5389 38.6938 21.6602 39.5743 21.6602 40.6548C21.6602 41.7354 22.5406 42.6158 23.6211 42.6158C24.7017 42.6158 25.5821 41.7354 25.5821 40.6548C25.5821 40.272 25.469 39.9136 25.2794 39.6108C26.0798 38.5825 28.2652 35.1825 28.5158 28.4452C28.5279 28.1268 28.2791 27.8589 27.9607 27.8467L27.9624 27.8484ZM23.6211 41.4622C23.1757 41.4622 22.8138 41.1003 22.8138 40.6548C22.8138 40.2094 23.1757 39.8475 23.6211 39.8475C24.0666 39.8475 24.4285 40.2094 24.4285 40.6548C24.4285 41.1003 24.0666 41.4622 23.6211 41.4622Z" fill="white"/>
<path d="M43.3933 30.6985H42.8086C42.8121 30.6741 42.8156 30.648 42.8156 30.6237V20.7109C42.8156 9.64101 33.8094 0.634766 22.7395 0.634766C11.6696 0.634766 2.74167 9.56445 2.66511 20.5699L1.20003 22.035C1.09215 22.1429 1.03125 22.2908 1.03125 22.4422C1.03125 22.5936 1.09215 22.7415 1.20003 22.8493L2.83215 24.4815C2.94003 24.5893 3.08619 24.6502 3.23931 24.6502C3.39243 24.6502 3.53859 24.5893 3.64647 24.4815L5.27859 22.8493C5.50479 22.6249 5.50479 22.2595 5.27859 22.0333L3.81699 20.5717C3.89181 10.2013 12.3499 1.78839 22.7377 1.78839C33.1255 1.78839 41.6602 10.2761 41.6602 20.7109V30.6237C41.6602 30.6498 41.6637 30.6741 41.6672 30.6985H41.0826C40.7641 30.6985 40.5049 30.956 40.5049 31.2762V33.5834C40.5049 33.9018 40.7624 34.1611 41.0826 34.1611H43.3898C43.7082 34.1611 43.9675 33.9036 43.9675 33.5834V31.2762C43.9675 30.9577 43.71 30.6985 43.3898 30.6985H43.3933ZM3.24105 23.2565L2.42499 22.4404L3.24105 21.6244L4.05711 22.4404L3.24105 23.2565ZM42.8156 33.0075H41.662V31.8538H42.8156V33.0075Z" fill="white"/>
<path d="M3.15646 50.5345L3.0103 51.2096H0.925781L2.80672 45.7773H4.99042L6.92878 51.2096H4.83556L4.65634 50.5345H3.1582H3.15646ZM3.95512 47.5939H3.88204C3.87334 47.8218 3.84202 48.0098 3.79156 48.2046L3.5236 49.2469H4.31356L4.06126 48.2046C4.01254 47.9924 3.97948 47.7888 3.95512 47.5939Z" fill="white"/>
<path d="M8.63065 45.7771H10.5847V48.93C10.5847 49.0936 10.6003 49.3215 10.7552 49.4833C10.8613 49.5982 10.9918 49.6295 11.1467 49.6295C11.3503 49.6295 11.4721 49.5721 11.5451 49.499C11.6913 49.3528 11.6913 49.0675 11.6913 48.9283V45.7754H13.654V49.1075C13.654 49.5303 13.5722 50.1498 13.0833 50.6544C12.53 51.2251 11.747 51.3312 11.1449 51.3312C10.6473 51.3312 9.74424 51.2825 9.1248 50.6143C8.70198 50.1585 8.62891 49.6452 8.62891 49.2467V45.7771H8.63065Z" fill="white"/>
<path d="M16.2148 51.2096V45.7773H18.6665C19.2372 45.7773 19.8306 45.8417 20.3282 46.3394C20.6049 46.616 20.8415 47.0319 20.8415 47.6757C20.8415 48.1559 20.6953 48.4569 20.5405 48.6449C20.3769 48.8484 20.109 49.012 19.7905 49.0764V49.1251C19.8967 49.1825 20.0028 49.2643 20.0759 49.3774L21.2974 51.2096H19.0249L18.2437 49.621C18.2193 49.5636 18.195 49.5392 18.1706 49.4505L18.1375 49.4661V51.2096H16.2148ZM18.1375 48.1959H18.3655C18.4803 48.1959 18.6595 48.1803 18.7813 48.0741C18.8457 48.0167 18.9205 47.9106 18.9205 47.7401C18.9205 47.6183 18.8875 47.4965 18.8144 47.4147C18.75 47.3416 18.6439 47.2685 18.4803 47.2685H18.1375V48.1977V48.1959Z" fill="white"/>
<path d="M28.2939 50.4612C27.8293 50.9327 27.0724 51.3329 26.0371 51.3329C25.0018 51.3329 24.2449 50.9344 23.7803 50.4612C23.3575 50.0296 23.0234 49.3615 23.0234 48.4897C23.0234 47.618 23.3575 46.9585 23.7803 46.527C24.2449 46.0555 25.0018 45.6553 26.0371 45.6553C27.0724 45.6553 27.8293 46.0537 28.2939 46.527C28.7167 46.9585 29.0508 47.6267 29.0508 48.4897C29.0508 49.3528 28.7167 50.0296 28.2939 50.4612ZM25.3289 47.6824C25.1341 47.886 25.0192 48.2044 25.0192 48.4967C25.0192 48.8064 25.1341 49.1074 25.3289 49.3023C25.4925 49.4659 25.7361 49.579 26.0371 49.579C26.3381 49.579 26.5835 49.4641 26.7453 49.3023C26.9245 49.1231 27.055 48.8377 27.055 48.4967C27.055 48.1557 26.9402 47.8703 26.7453 47.6824C26.5991 47.5362 26.3625 47.4057 26.0371 47.4057C25.6874 47.4057 25.4594 47.5449 25.3289 47.6824Z" fill="white"/>
<path d="M31.3633 51.2096V45.7773H33.8149C34.3857 45.7773 34.979 45.8417 35.4766 46.3394C35.7533 46.616 35.9899 47.0319 35.9899 47.6757C35.9899 48.1559 35.8438 48.4569 35.6889 48.6449C35.5254 48.8484 35.2574 49.012 34.939 49.0764V49.1251C35.0451 49.1825 35.1513 49.2643 35.2243 49.3774L36.4458 51.2096H34.1734L33.3921 49.621C33.3678 49.5636 33.3434 49.5392 33.319 49.4505L33.286 49.4661V51.2096H31.3633ZM33.286 48.1959H33.5139C33.6288 48.1959 33.8062 48.1803 33.9298 48.0741C33.9942 48.0167 34.069 47.9106 34.069 47.7401C34.069 47.6183 34.0359 47.4965 33.9628 47.4147C33.8985 47.3416 33.7923 47.2685 33.6288 47.2685H33.286V48.1977V48.1959Z" fill="white"/>
<path d="M40.3088 50.5345L40.1626 51.2096H38.0781L39.9591 45.7773H42.141L44.0794 51.2096H41.9862L41.8069 50.5345H40.3088ZM41.1075 47.5939H41.0344C41.0257 47.8218 40.9944 48.0098 40.9439 48.2046L40.6742 49.2469H41.4642L41.2119 48.2046C41.1631 47.9924 41.1301 47.7888 41.1057 47.5939H41.1075Z" fill="white"/>
</svg>
